<svg width="24" height="24" viewBox="0 0 24 24" fill="none" xmlns="http://www.w3.org/2000/svg">
<path fill-rule="evenodd" clip-rule="evenodd" d="M19.3346 1.09572C18.9936 0.89867 18.5575 1.01561 18.3606 1.3569L16.1799 5.13807C14.6942 4.45145 13.1563 4.10039 11.5994 4.10039C7.41646 4.10039 3.36997 6.63644 0.106892 11.404L0.0939508 11.4227L0.0826315 11.4389C-0.0260596 11.5926 -0.0288342 11.7732 0.0820878 11.9251C2.48994 15.4564 5.32729 17.7691 8.33214 18.7412L6.59497 21.7511C6.39804 22.0925 6.5149 22.5289 6.85593 22.7259L7.1647 22.9043C7.50574 23.1013 7.94181 22.9844 8.13873 22.6431L19.9043 2.24887C20.1013 1.90758 19.9844 1.47118 19.6433 1.27412L19.3346 1.09572ZM15.2339 6.77777C14.0247 6.25214 12.8037 5.99593 11.5994 5.99593C8.56013 5.99593 5.41384 7.62791 2.61957 11.1046C2.35133 11.4384 2.35133 11.9249 2.61957 12.2587C4.71414 14.8649 7.00645 16.4349 9.30329 17.0579L10.5043 14.976C9.13234 14.5439 7.99784 13.3388 7.99784 11.6836C7.99784 9.58986 9.62317 7.89241 11.6278 7.89241C12.5531 7.89241 13.3976 8.25409 14.0388 8.84943L15.2339 6.77777ZM13.0476 10.5676C12.7389 10.0951 12.2313 9.78795 11.6278 9.78795C10.6246 9.78795 9.8042 10.6353 9.8042 11.6821C9.8042 12.374 10.5557 13.1825 11.4998 13.2505L13.0476 10.5676Z" fill="black"/>
<path d="M12 19C15.97 18.7733 19.7888 16.3039 22.8985 11.8462C22.9636 11.7528 23 11.6562 23 11.5414C23 11.4319 22.9687 11.3404 22.9067 11.2514C21.7116 9.53537 20.4114 8.11343 19.038 7L18.0917 8.6135C18.8803 9.273 19.6526 10.058 20.3997 10.9724C20.6686 11.3015 20.6686 11.7812 20.3997 12.1103C18.1468 14.8678 15.6656 16.4488 13.1954 16.9618L12 19Z" fill="black"/>
</svg>
