<svg width="24" height="24" viewBox="0 0 24 24" fill="none" xmlns="http://www.w3.org/2000/svg">
<path fill-rule="evenodd" clip-rule="evenodd" d="M15.2117 13.2128C15.4162 12.7493 15.5304 12.2335 15.5304 12.0014C15.5304 9.98951 13.9673 8.35828 12.0395 8.35828C10.1117 8.35828 8.54858 9.98951 8.54858 12.0014C8.54858 14.0132 10.2941 15.3331 12.0395 15.3331C13.156 15.3331 14.1497 14.787 14.7872 13.9367C14.9543 13.7144 15.0975 13.4716 15.2117 13.2128ZM12.0395 13.5116C12.4758 13.5116 12.8747 13.3444 13.1815 13.0678C13.5515 12.7342 13.7143 12.2406 13.7143 12.0014C13.7143 10.9954 13.0043 10.1798 12.0395 10.1798C11.0747 10.1798 10.2857 10.9941 10.2857 12C10.2857 12.6946 11.0747 13.5116 12.0395 13.5116Z" fill="black"/>
<path fill-rule="evenodd" clip-rule="evenodd" d="M0.936138 12.2334C0.922501 12.2165 0.949775 12.2512 0.936138 12.2334C0.829441 12.0875 0.832126 11.9139 0.936618 11.7662C0.944272 11.7554 0.952072 11.7442 0.959975 11.7327C4.09804 7.15125 7.98951 4.71423 12.0122 4.71423C16.0307 4.71423 19.9187 7.1447 23.0534 11.7169C23.1129 11.8037 23.1429 11.8928 23.1429 11.9995C23.1429 12.1115 23.108 12.2056 23.0454 12.2966C19.9116 16.8601 16.0271 19.2857 12.0122 19.2857C7.97928 19.2857 4.07761 16.8371 0.936138 12.2334ZM3.3764 11.4449C3.11841 11.7657 3.11841 12.2333 3.37639 12.5541C6.06361 15.8951 9.08935 17.4641 12.0122 17.4641C14.9351 17.4641 17.9609 15.8951 20.6481 12.5541C20.9061 12.2333 20.9061 11.7657 20.6481 11.4449C17.9609 8.10402 14.9351 6.53577 12.0122 6.53577C9.08935 6.53577 6.06361 8.10402 3.3764 11.4449Z" fill="black"/>
</svg>
